<svg width="40" height="40" viewBox="0 0 40 40" fill="none" xmlns="http://www.w3.org/2000/svg">
<path fill-rule="evenodd" clip-rule="evenodd" d="M18.79 23.4464C18.0952 22.6075 16.9019 22.6507 15.9687 23.1826C14.5247 24.0057 12.8674 24.4736 11.1052 24.4736C9.34294 24.4736 7.68565 24.0057 6.24164 23.1826C5.3085 22.6507 4.11514 22.6075 3.42036 23.4464C1.8877 25.2969 0.960938 27.7069 0.960938 30.3423V31.5161C0.960938 32.8126 1.97021 33.8636 3.21521 33.8636H18.9952C20.2402 33.8636 21.2494 32.8126 21.2494 31.5161V30.3423C21.2494 27.7069 20.3227 25.2969 18.79 23.4464Z" fill="#9CCDED"/>
<path d="M16.6387 15.4195C16.6387 18.4754 14.1614 20.9527 11.1055 20.9527C8.04957 20.9527 5.57227 18.4754 5.57227 15.4195C5.57227 12.3635 8.04957 9.88623 11.1055 9.88623C14.1614 9.88623 16.6387 12.3635 16.6387 15.4195Z" fill="#9CCDED"/>
<path fill-rule="evenodd" clip-rule="evenodd" d="M34.0372 22.8372C33.0593 21.6565 31.3795 21.7173 30.0661 22.466C28.0335 23.6245 25.7007 24.2831 23.2202 24.2831C20.7397 24.2831 18.407 23.6245 16.3744 22.466C15.0609 21.7173 13.3812 21.6565 12.4032 22.8372C10.2459 25.4419 8.94141 28.8342 8.94141 32.5438V34.196C8.94141 36.0209 10.362 37.5002 12.1145 37.5002H34.326C36.0784 37.5002 37.4991 36.0209 37.4991 34.196V32.5438C37.4991 28.8342 36.1946 25.4419 34.0372 22.8372Z" fill="#178FE1"/>
<path d="M31.0085 11.5385C31.0085 15.8399 27.5215 19.3269 23.2201 19.3269C18.9187 19.3269 15.4316 15.8399 15.4316 11.5385C15.4316 7.23701 18.9187 3.75 23.2201 3.75C27.5215 3.75 31.0085 7.23701 31.0085 11.5385Z" fill="#178FE1"/>
</svg>
