<svg width="40" height="40" viewBox="0 0 40 40" fill="none" xmlns="http://www.w3.org/2000/svg">
<path fill-rule="evenodd" clip-rule="evenodd" d="M33.5663 3.97701C33.8371 4.04284 34.0899 4.16809 34.3062 4.34368C34.5227 4.51944 34.6973 4.74122 34.8173 4.99291C34.9373 5.24459 34.9997 5.51985 35 5.79867V19.7805C34.9975 22.4662 34.3552 25.1127 33.1262 27.5008C31.8973 29.8889 30.1171 31.9498 27.9331 33.513L21.0894 38.4011C20.7715 38.628 20.3906 38.75 20 38.75C19.6094 38.75 19.2285 38.628 18.9106 38.4011L12.0669 33.513C9.8831 31.9496 8.10309 29.8886 6.87419 27.5006C5.64528 25.1126 5.00282 22.4662 5 19.7805V5.80055C4.99966 5.52151 5.0616 5.24591 5.18131 4.99385C5.30101 4.74179 5.47547 4.51963 5.69196 4.34357C5.90844 4.16751 6.16149 4.04199 6.43266 3.97616C6.70382 3.91033 6.98626 3.90585 7.25938 3.96305C9.2633 4.38679 11.3329 4.39458 13.3399 3.98595C15.347 3.57731 17.2488 2.76095 18.9275 1.58744C19.242 1.36779 19.6164 1.25 20 1.25C20.3836 1.25 20.758 1.36779 21.0725 1.58744C22.7515 2.76045 24.6533 3.57651 26.6602 3.98512C28.6672 4.39374 30.7367 4.38623 32.7406 3.96305C33.0135 3.90641 33.2955 3.91118 33.5663 3.97701ZM25.7526 16.6585C26.1163 16.2429 26.0741 15.6111 25.6585 15.2474C25.2429 14.8837 24.6111 14.9259 24.2474 15.3415L18 22.4814L15.7526 19.9129C15.3889 19.4973 14.7571 19.4552 14.3415 19.8189C13.9259 20.1825 13.8837 20.8143 14.2474 21.2299L17.2474 24.6585C17.4373 24.8755 17.7116 25 18 25C18.2884 25 18.5627 24.8755 18.7526 24.6585L25.7526 16.6585Z" fill="#178FE1"/>
</svg>
