<svg width="40" height="40" viewBox="0 0 40 40" fill="none" xmlns="http://www.w3.org/2000/svg">
<path d="M6.66732 21.6667C6.66732 20.7462 7.41351 20 8.33398 20H11.6673C12.5878 20 13.334 20.7462 13.334 21.6667V28.3333H16.6673V21.6667C16.6673 20.7462 17.4135 20 18.334 20H21.6673C22.5878 20 23.334 20.7462 23.334 21.6667V28.3333H26.6673V21.6667C26.6673 20.7462 27.4135 20 28.334 20H31.6673C32.5878 20 33.334 20.7462 33.334 21.6667V28.3333C35.1749 28.3333 36.6673 29.8257 36.6673 31.6667V33.3333C36.6673 35.1743 35.1749 36.6667 33.334 36.6667H6.66732C4.82637 36.6667 3.33398 35.1743 3.33398 33.3333V31.6667C3.33398 29.8257 4.82637 28.3333 6.66732 28.3333V21.6667Z" fill="#178FE1"/>
<path d="M3.33398 12.257C3.33398 10.894 4.16382 9.66829 5.42935 9.16208L18.7627 3.82874C19.5574 3.51086 20.4439 3.51086 21.2386 3.82874L34.572 9.16208C35.8375 9.66829 36.6673 10.894 36.6673 12.257V13.3336C36.6673 15.1745 35.1749 16.6669 33.334 16.6669H6.66732C4.82637 16.6669 3.33398 15.1745 3.33398 13.3336V12.257Z" fill="#178FE1"/>
</svg>
