<svg width="20" height="19" viewBox="0 0 20 19" fill="none" xmlns="http://www.w3.org/2000/svg">
<path d="M10 8.63783C15.5234 8.63783 20 6.70302 20 4.31892C20 1.93481 15.5234 0 10 0C4.47656 0 0 1.93481 0 4.31892C0 6.70302 4.47656 8.63783 10 8.63783ZM10 15.5432C6.18359 15.5432 2.80859 14.592 0.679688 13.1227C0.246094 13.6084 0 14.1306 0 14.6811C0 17.0652 4.47656 19 10 19C15.5234 19 20 17.0652 20 14.6811C20 14.1306 19.7539 13.6084 19.3203 13.1268C17.1914 14.592 13.8164 15.5432 10 15.5432ZM10 10.3622C6.18359 10.3622 2.80859 9.41095 0.679688 7.94163C0.246094 8.42735 0 8.94951 0 9.5C0 11.8841 4.47656 13.8189 10 13.8189C15.5234 13.8189 20 11.8841 20 9.5C20 8.94951 19.7539 8.42735 19.3203 7.94567C17.1914 9.41095 13.8164 10.3622 10 10.3622Z" fill="#B1B5C4"/>
</svg>
